<svg width="25" height="24" viewBox="0 0 25 24" fill="none" xmlns="http://www.w3.org/2000/svg">
<g clip-path="url(#clip0_176_609)">
<path d="M10.5 23.8667C4.83333 22.8667 0.5 17.9333 0.5 12C0.5 5.4 5.9 0 12.5 0C19.1 0 24.5 5.4 24.5 12C24.5 17.9333 20.1667 22.8667 14.5 23.8667L13.8333 23.3333H11.1667L10.5 23.8667Z" fill="#423A2F"/>
<path d="M17.1667 15.3333L17.7 12H14.5V9.66666C14.5 8.73332 14.8333 7.99999 16.3 7.99999H17.8333V4.93332C16.9667 4.79999 16.0333 4.66666 15.1667 4.66666C12.4333 4.66666 10.5 6.33332 10.5 9.33332V12H7.5V15.3333H10.5V23.8C11.1667 23.9333 11.8333 24 12.5 24C13.1667 24 13.8333 23.9333 14.5 23.8V15.3333H17.1667Z" fill="#FAFAF0"/>
</g>
<defs>
<clipPath id="clip0_176_609">
<rect width="24" height="24" fill="white" transform="translate(0.5)"/>
</clipPath>
</defs>
</svg>
