<svg width="24" height="24" viewBox="0 0 24 24" fill="none" xmlns="http://www.w3.org/2000/svg">
<g id="Camera video">
<path id="Vector" d="M12 12C11.45 12 10.9792 11.8042 10.5875 11.4125C10.1958 11.0208 10 10.55 10 10C10 9.45 10.1958 8.97917 10.5875 8.5875C10.9792 8.19583 11.45 8 12 8C12.55 8 13.0208 8.19583 13.4125 8.5875C13.8042 8.97917 14 9.45 14 10C14 10.55 13.8042 11.0208 13.4125 11.4125C13.0208 11.8042 12.55 12 12 12ZM6.5 9C6.78333 9 7.02083 8.90417 7.2125 8.7125C7.40417 8.52083 7.5 8.28333 7.5 8C7.5 7.71667 7.40417 7.47917 7.2125 7.2875C7.02083 7.09583 6.78333 7 6.5 7C6.21667 7 5.97917 7.09583 5.7875 7.2875C5.59583 7.47917 5.5 7.71667 5.5 8C5.5 8.28333 5.59583 8.52083 5.7875 8.7125C5.97917 8.90417 6.21667 9 6.5 9ZM5 21C4.71667 21 4.47917 20.9042 4.2875 20.7125C4.09583 20.5208 4 20.2833 4 20C4 19.7167 4.09583 19.4792 4.2875 19.2875C4.47917 19.0958 4.71667 19 5 19H7.225L7.75 16.9C6.1 16.6167 4.72917 15.8292 3.6375 14.5375C2.54583 13.2458 2 11.7333 2 10C2 8.05 2.67917 6.39583 4.0375 5.0375C5.39583 3.67917 7.05 3 9 3H15C16.95 3 18.6042 3.67917 19.9625 5.0375C21.3208 6.39583 22 8.05 22 10C22 11.7333 21.4542 13.2458 20.3625 14.5375C19.2708 15.8292 17.9 16.6167 16.25 16.9L16.775 19H19C19.2833 19 19.5208 19.0958 19.7125 19.2875C19.9042 19.4792 20 19.7167 20 20C20 20.2833 19.9042 20.5208 19.7125 20.7125C19.5208 20.9042 19.2833 21 19 21H5ZM12 14C13.1 14 14.0417 13.6083 14.825 12.825C15.6083 12.0417 16 11.1 16 10C16 8.9 15.6083 7.95833 14.825 7.175C14.0417 6.39167 13.1 6 12 6C10.9 6 9.95833 6.39167 9.175 7.175C8.39167 7.95833 8 8.9 8 10C8 11.1 8.39167 12.0417 9.175 12.825C9.95833 13.6083 10.9 14 12 14Z" fill="#A44119"/>
</g>
</svg>
