<svg width="25" height="24" viewBox="0 0 25 24" fill="none" xmlns="http://www.w3.org/2000/svg">
<path fill-rule="evenodd" clip-rule="evenodd" d="M12.5 0C19.1274 0 24.5 4.59661 24.5 10.2668C24.5 12.2474 23.844 14.0966 22.7085 15.6649C22.6523 15.7542 22.5789 15.8528 22.4863 15.9618L22.4793 15.9699C22.0914 16.4658 21.6546 16.9313 21.1743 17.361C17.8558 20.6382 12.3937 24.54 11.6728 23.938C11.0461 23.4148 12.705 20.8555 10.7911 20.4295C10.6576 20.4132 10.5244 20.3956 10.3924 20.3756L10.3899 20.3754V20.3752C4.76872 19.522 0.5 15.321 0.5 10.2668C0.499827 4.59661 5.8725 0 12.5 0V0Z" fill="#423A2F"/>
<path fill-rule="evenodd" clip-rule="evenodd" d="M5.53794 13.5412H7.95816C8.30242 13.5412 8.584 13.2402 8.584 12.8724V12.8166C8.584 12.4488 8.30242 12.1479 7.95816 12.1479H6.21599V7.91287C6.21599 7.54505 5.93442 7.2442 5.59015 7.2442H5.53794C5.19368 7.2442 4.91211 7.54505 4.91211 7.91287V12.8723C4.91211 13.2402 5.19368 13.5412 5.53794 13.5412V13.5412ZM20.5349 10.4325V10.3767C20.5349 10.0089 20.2532 9.70806 19.9089 9.70806H18.1668V8.64926H19.9089C20.2532 8.64926 20.5349 8.34842 20.5349 7.98059V7.92481C20.5349 7.55698 20.2532 7.25614 19.9089 7.25614H17.4887C17.1445 7.25614 16.8629 7.55698 16.8629 7.92481V12.8842C16.8629 13.2521 17.1445 13.553 17.4887 13.553H19.9089C20.2532 13.553 20.5349 13.2521 20.5349 12.8842V12.8285C20.5349 12.4606 20.2532 12.1598 19.9089 12.1598H18.1668V11.101H19.9089C20.2532 11.1012 20.5349 10.8002 20.5349 10.4325V10.4325ZM15.8805 13.3418L15.8807 13.3415C15.9965 13.2168 16.0615 13.0482 16.0616 12.8725V7.91306C16.0616 7.54523 15.7801 7.24439 15.4357 7.24439H15.3835C15.0392 7.24439 14.7577 7.54523 14.7577 7.91306V10.8243L12.4955 7.58252C12.3875 7.38093 12.184 7.24439 11.9521 7.24439H11.8999C11.5557 7.24439 11.274 7.54523 11.274 7.91306V12.8725C11.274 13.2403 11.5556 13.5413 11.8999 13.5413H11.9521C12.2964 13.5413 12.578 13.2403 12.578 12.8725V9.90677L14.8564 13.2317C14.8704 13.255 14.8857 13.2774 14.9023 13.2987L14.9023 13.2989C14.9649 13.3901 15.0506 13.4526 15.146 13.4908C15.2193 13.5232 15.2995 13.5412 15.3834 13.5412H15.4356C15.5376 13.5412 15.638 13.5144 15.728 13.4631C15.7906 13.4313 15.8433 13.3902 15.8805 13.3418V13.3418ZM9.71497 13.5412H9.76718C10.1114 13.5412 10.393 13.2402 10.393 12.8724V7.91297C10.393 7.54514 10.1114 7.24429 9.76718 7.24429H9.71497C9.3707 7.24429 9.08904 7.54514 9.08904 7.91297V12.8724C9.08904 13.2402 9.3707 13.5412 9.71497 13.5412Z" fill="#FAFAFA"/>
</svg>
