<svg width="25" height="24" viewBox="0 0 25 24" fill="none" xmlns="http://www.w3.org/2000/svg">
<g clip-path="url(#clip0_176_613)">
<path d="M12.5 2.16225C15.7041 2.16225 16.0836 2.17444 17.3489 2.23209C18.5189 2.28553 19.1544 2.481 19.5773 2.64534C20.1373 2.86303 20.5371 3.12309 20.957 3.543C21.377 3.96291 21.637 4.36266 21.8547 4.92272C22.019 5.34562 22.2145 5.98106 22.2679 7.15097C22.3256 8.41641 22.3377 8.79591 22.3377 12C22.3377 15.2042 22.3256 15.5837 22.2679 16.849C22.2145 18.019 22.019 18.6544 21.8547 19.0773C21.637 19.6373 21.3769 20.0372 20.957 20.4571C20.5371 20.877 20.1373 21.1371 19.5773 21.3547C19.1544 21.519 18.5189 21.7146 17.3489 21.7679C16.0838 21.8257 15.7043 21.8378 12.5 21.8378C9.29562 21.8378 8.91613 21.8257 7.65097 21.7679C6.48097 21.7145 5.84562 21.519 5.42272 21.3547C4.86266 21.1371 4.46281 20.877 4.04291 20.4571C3.623 20.0371 3.36294 19.6373 3.14534 19.0773C2.981 18.6545 2.78544 18.019 2.73209 16.849C2.67434 15.5837 2.66216 15.2042 2.66216 12C2.66216 8.79591 2.67434 8.41641 2.73209 7.15106C2.78553 5.98106 2.981 5.34562 3.14534 4.92272C3.36294 4.36266 3.623 3.96291 4.04291 3.543C4.46291 3.123 4.86266 2.86303 5.42272 2.64534C5.84553 2.481 6.48097 2.28553 7.65097 2.23209C8.91631 2.17444 9.29581 2.16225 12.5 2.16225ZM12.5 0C9.24097 0 8.83231 0.0137812 7.55244 0.0721875C6.27509 0.1305 5.40275 0.333375 4.63953 0.63C3.85034 0.936656 3.18116 1.347 2.51403 2.01412C1.84691 2.68125 1.43666 3.35044 1.13 4.13953C0.833281 4.90284 0.6305 5.77519 0.572187 7.05244C0.513781 8.33231 0.5 8.74097 0.5 12C0.5 15.259 0.513781 15.6677 0.572187 16.9476C0.6305 18.2249 0.833281 19.0972 1.13 19.8605C1.43656 20.6496 1.84691 21.3188 2.51403 21.986C3.18116 22.6531 3.85034 23.0633 4.63953 23.37C5.40284 23.6667 6.27509 23.8695 7.55234 23.9278C8.83231 23.9862 9.24097 24 12.5 24C15.759 24 16.1677 23.9862 17.4476 23.9278C18.7248 23.8695 19.5972 23.6667 20.3604 23.37C21.1496 23.0634 21.8188 22.6531 22.4859 21.986C23.153 21.3188 23.5633 20.6497 23.87 19.8605C24.1666 19.0972 24.3695 18.2249 24.4278 16.9477C24.4862 15.6677 24.5 15.259 24.5 12C24.5 8.74097 24.4862 8.33231 24.4278 7.05244C24.3695 5.77519 24.1666 4.90284 23.87 4.13962C23.5633 3.35044 23.153 2.68125 22.4859 2.01412C21.8188 1.347 21.1496 0.936562 20.3605 0.63C19.5972 0.333375 18.7248 0.1305 17.4476 0.0721875C16.1677 0.0137812 15.759 0 12.5 0ZM12.5 5.83781C9.09669 5.83781 6.33781 8.59688 6.33781 12C6.33781 15.4033 9.09669 18.1622 12.5 18.1622C15.9032 18.1622 18.6622 15.4033 18.6622 12C18.6622 8.59678 15.9032 5.83781 12.5 5.83781ZM12.5 16C10.2909 16 8.49997 14.2091 8.49997 12C8.49997 9.79088 10.2909 7.99997 12.5 7.99997C14.7091 7.99997 16.5 9.79088 16.5 12C16.5 14.2091 14.7091 16 12.5 16ZM20.3456 5.59434C20.3456 6.38972 19.7009 7.03434 18.9056 7.03434C18.1103 7.03434 17.4656 6.38972 17.4656 5.59434C17.4656 4.79906 18.1103 4.15434 18.9056 4.15434C19.7009 4.15434 20.3456 4.79906 20.3456 5.59434Z" fill="#423A2F"/>
</g>
<defs>
<clipPath id="clip0_176_613">
<rect width="24" height="24" fill="white" transform="translate(0.5)"/>
</clipPath>
</defs>
</svg>
